# Blender 4.0.2
# www.blender.org
mtllib HeartCutoutHalf.mtl
o Heart.001
v -0.054096 -0.313242 0.012562
v -0.054096 -0.047034 0.307865
v 0.054096 -0.313242 0.012562
v 0.054096 -0.047034 0.307865
v -0.054096 0.116086 0.309558
v 0.054096 0.116086 0.309558
v -0.054096 -0.313242 0.000000
v -0.054096 -0.047034 0.000000
v 0.054096 -0.313242 0.000000
v 0.054096 -0.047034 0.000000
v -0.054096 0.182688 0.000000
v 0.054096 0.182688 0.000000
v -0.054096 -0.180138 0.136119
v 0.054096 -0.180138 0.136119
v 0.054096 -0.180138 0.000000
v -0.054096 -0.180138 0.000000
v 0.054096 0.200862 0.013027
v -0.054096 0.200862 0.013027
v -0.054096 0.200862 0.252165
v 0.054096 0.200862 0.252165
v -0.054096 0.230172 0.061640
v 0.054096 0.230172 0.061640
v -0.054096 0.230172 0.218543
v 0.054096 0.230172 0.218543
v 0.054096 0.034526 0.315960
v -0.054096 0.034526 0.315960
v -0.054096 0.034526 -0.000000
v 0.054096 0.034526 -0.000000
v -0.054096 0.239898 0.100866
v 0.054096 0.239898 0.100866
v -0.054096 0.239898 0.179317
v 0.054096 0.239898 0.179317
v 0.054096 -0.246690 0.063270
v 0.054096 -0.246690 0.000000
v -0.054096 -0.246690 0.000000
v -0.054096 -0.246690 0.063270
v -0.054096 -0.113586 0.264258
v 0.054096 -0.113586 0.264258
v 0.054096 -0.113586 0.000000
v -0.054096 -0.113586 0.000000
vn 1.0000 -0.0000 -0.0000
vn -0.0000 -0.5481 0.8364
vn -0.0000 -1.0000 -0.0000
vn -1.0000 -0.0000 -0.0000
vn -0.0000 0.0783 0.9969
vn -0.0000 -0.7383 0.6745
vn -0.0000 0.5826 -0.8128
vn -0.0000 0.5606 0.8281
vn -0.0000 0.7538 0.6571
vn -0.0000 0.8564 -0.5163
vn -0.0000 -0.0988 0.9951
vn -0.0000 1.0000 -0.0000
vn -0.0000 0.9706 0.2407
vn -0.0000 0.9706 -0.2407
vn -0.0000 -0.0000 -1.0000
vn -0.0000 -0.6061 0.7954
vn -0.0000 -0.8874 0.4609
vt 0.562500 0.625000
vt 0.625000 0.625000
vt 0.625000 0.750000
vt 0.562500 0.750000
vt 0.625000 1.000000
vt 0.562500 1.000000
vt 0.125000 0.625000
vt 0.375000 0.625000
vt 0.375000 0.750000
vt 0.125000 0.750000
vt 0.625000 0.125000
vt 0.625000 0.000000
vt 0.562500 0.000000
vt 0.562500 0.125000
vt 0.437500 0.000000
vt 0.500000 0.000000
vt 0.500000 0.125000
vt 0.437500 0.125000
vt 0.437500 0.750000
vt 0.500000 0.750000
vt 0.500000 1.000000
vt 0.437500 1.000000
vt 0.437500 0.625000
vt 0.500000 0.625000
vt 0.875000 0.625000
vt 0.875000 0.750000
vt 0.375000 0.125000
vt 0.375000 1.000000
vt 0.375000 0.000000
s 0
usemtl Material.001
f 39/1/1 10/2/1 4/3/1 38/4/1
f 38/4/2 4/3/2 2/5/2 37/6/2
f 7/7/3 9/8/3 3/9/3 1/10/3
f 27/11/4 26/12/4 5/12/4 11/11/4
f 26/5/5 25/3/5 6/3/5 5/5/5
f 25/3/1 28/2/1 12/2/1 6/3/1
f 37/13/4 2/12/4 8/11/4 40/14/4
f 36/15/4 13/16/4 16/17/4 35/18/4
f 33/19/6 14/20/6 13/21/6 36/22/6
f 34/23/1 15/24/1 14/20/1 33/19/1
f 11/25/7 18/25/7 17/2/7 12/2/7
f 5/26/4 19/26/4 18/25/4 11/25/4
f 6/3/8 20/3/8 19/26/8 5/26/8
f 12/2/1 17/2/1 20/3/1 6/3/1
f 24/3/1 22/2/1 30/2/1 32/3/1
f 19/26/9 20/3/9 24/3/9 23/26/9
f 17/2/10 18/25/10 21/25/10 22/2/10
f 20/3/1 17/2/1 22/2/1 24/3/1
f 18/25/4 19/26/4 23/26/4 21/25/4
f 4/3/1 10/2/1 28/2/1 25/3/1
f 2/5/11 4/3/11 25/3/11 26/5/11
f 8/11/4 2/12/4 26/12/4 27/11/4
f 30/2/12 29/25/12 31/26/12 32/3/12
f 21/25/4 23/26/4 31/26/4 29/25/4
f 23/26/13 24/3/13 32/3/13 31/26/13
f 22/2/14 21/25/14 29/25/14 30/2/14
f 7/27/15 35/18/15 34/23/15 9/8/15
f 34/23/15 35/18/15 16/17/15 15/24/15
f 9/8/1 34/23/1 33/19/1 3/9/1
f 3/9/16 33/19/16 36/22/16 1/28/16
f 15/24/15 16/17/15 40/14/15 39/1/15
f 1/29/4 36/15/4 35/18/4 7/27/4
f 13/16/4 37/13/4 40/14/4 16/17/4
f 39/1/15 40/14/15 8/11/15 10/2/15
f 14/20/17 38/4/17 37/6/17 13/21/17
f 15/24/1 39/1/1 38/4/1 14/20/1
f 27/11/15 28/2/15 10/2/15 8/11/15
f 11/25/15 12/2/15 28/2/15 27/11/15
