# Blender 4.0.2
# www.blender.org
mtllib ManaMaxHalf.mtl
o ManaMaxHalf2
v -0.051630 -0.000000 -0.291537
v 0.051630 0.000000 -0.291537
v -0.051630 -0.111566 -0.269345
v 0.051630 -0.111566 -0.269345
v -0.051630 0.111566 -0.269345
v 0.051630 0.111566 -0.269345
v 0.051630 0.203498 -0.106070
v 0.051630 0.188007 -0.028195
v 0.051630 0.188007 -0.183946
v 0.051630 0.143895 0.037824
v 0.051630 0.077875 0.081937
v 0.051630 -0.077875 0.081937
v 0.051630 0.000000 0.097427
v 0.051630 -0.203498 -0.106070
v 0.051630 -0.188007 -0.028195
v 0.051630 -0.188007 -0.183946
v 0.051630 -0.143895 0.037824
v -0.051630 -0.188007 -0.183946
v -0.051630 0.203498 -0.106070
v -0.051630 0.188007 -0.183946
v -0.051630 -0.077875 0.081937
v -0.051630 -0.143895 0.037824
v -0.051630 -0.203498 -0.106070
v -0.051630 -0.188007 -0.028195
v -0.051630 0.143895 0.037824
v -0.051630 0.188007 -0.028195
v -0.051630 -0.000000 0.097427
v -0.051630 0.077875 0.081937
v 0.051630 -0.146576 -0.245952
v -0.051630 -0.146576 -0.245952
v 0.051630 0.146576 -0.245952
v -0.051630 0.146576 -0.245952
vn -0.0000 -0.1951 -0.9808
vn -0.0000 -0.5556 -0.8315
vn 1.0000 -0.0000 -0.0000
vn -0.0000 0.5556 -0.8315
vn -0.0000 0.1951 -0.9808
vn -1.0000 -0.0000 -0.0000
vn -0.0000 -0.8315 -0.5556
vn -0.0000 -0.9808 -0.1951
vn -0.0000 -0.9808 0.1951
vn -0.0000 -0.8315 0.5556
vn -0.0000 -0.5556 0.8315
vn -0.0000 -0.1951 0.9808
vn -0.0000 0.1951 0.9808
vn -0.0000 0.5556 0.8315
vn -0.0000 0.8315 0.5556
vn -0.0000 0.9808 0.1951
vn -0.0000 0.9808 -0.1951
vn -0.0000 0.8315 -0.5556
vt 1.000000 0.500000
vt 1.000000 1.000000
vt 0.937500 1.000000
vt 0.937500 0.500000
vt 0.914365 1.000000
vt 0.914365 0.500000
vt 0.370665 0.452474
vt 0.341844 0.471731
vt 0.250000 0.490000
vt 0.158156 0.471731
vt 0.129335 0.452474
vt 0.095228 0.401428
vt 0.082476 0.337320
vt 0.095228 0.273211
vt 0.131543 0.218862
vt 0.185891 0.182547
vt 0.250000 0.169795
vt 0.314109 0.182548
vt 0.368457 0.218862
vt 0.404772 0.273211
vt 0.417524 0.337320
vt 0.404772 0.401428
vt 0.085635 1.000000
vt 0.062500 1.000000
vt 0.062500 0.500000
vt 0.085635 0.500000
vt 0.000000 1.000000
vt 0.000000 0.500000
vt 0.629335 0.452474
vt 0.658156 0.471731
vt 0.750000 0.490000
vt 0.841844 0.471731
vt 0.870665 0.452474
vt 0.904772 0.401428
vt 0.917524 0.337320
vt 0.904772 0.273211
vt 0.868457 0.218862
vt 0.814109 0.182548
vt 0.750000 0.169795
vt 0.685891 0.182548
vt 0.631543 0.218862
vt 0.595228 0.273211
vt 0.582476 0.337320
vt 0.595228 0.401428
vt 0.871201 0.573179
vt 0.871201 0.926821
vt 0.812500 0.926821
vt 0.812500 0.573179
vt 0.750000 0.926821
vt 0.750000 0.573179
vt 0.687500 0.926821
vt 0.687500 0.573179
vt 0.625000 0.926821
vt 0.625000 0.573179
vt 0.562500 0.926821
vt 0.562500 0.573179
vt 0.500000 0.926821
vt 0.500000 0.573179
vt 0.437500 0.926821
vt 0.437500 0.573179
vt 0.375000 0.926821
vt 0.375000 0.573179
vt 0.312500 0.926821
vt 0.312500 0.573179
vt 0.250000 0.926821
vt 0.250000 0.573179
vt 0.187500 0.926821
vt 0.187500 0.573179
vt 0.128799 0.926821
vt 0.128799 0.573179
s 0
f 1/1/1 2/2/1 4/3/1 3/4/1
f 3/4/2 4/3/2 29/5/2 30/6/2
f 29/7/3 4/8/3 2/9/3 6/10/3 31/11/3 9/12/3 7/13/3 8/14/3 10/15/3 11/16/3 13/17/3 12/18/3 17/19/3 15/20/3 14/21/3 16/22/3
f 31/23/4 6/24/4 5/25/4 32/26/4
f 5/25/5 6/24/5 2/27/5 1/28/5
f 32/29/6 5/30/6 1/31/6 3/32/6 30/33/6 18/34/6 23/35/6 24/36/6 22/37/6 21/38/6 27/39/6 28/40/6 25/41/6 26/42/6 19/43/6 20/44/6
f 30/45/7 29/46/7 16/47/7 18/48/7
f 14/49/8 23/50/8 18/48/8 16/47/8
f 15/51/9 24/52/9 23/50/9 14/49/9
f 17/53/10 22/54/10 24/52/10 15/51/10
f 12/55/11 21/56/11 22/54/11 17/53/11
f 13/57/12 27/58/12 21/56/12 12/55/12
f 11/59/13 28/60/13 27/58/13 13/57/13
f 10/61/14 25/62/14 28/60/14 11/59/14
f 10/61/15 8/63/15 26/64/15 25/62/15
f 8/63/16 7/65/16 19/66/16 26/64/16
f 7/65/17 9/67/17 20/68/17 19/66/17
f 20/68/18 9/67/18 31/69/18 32/70/18
