# Blender 4.0.2
# www.blender.org
mtllib ManaCutoutHalf.mtl
o Mana.001
v -0.051630 -0.114408 -0.276206
v 0.051630 -0.114408 -0.276206
v -0.051630 -0.211399 -0.211399
v 0.051630 -0.211399 -0.211399
v -0.051630 -0.276206 -0.114408
v 0.051630 -0.276206 -0.114408
v -0.051630 -0.298964 0.000001
v 0.051630 -0.298964 0.000001
v -0.051630 -0.276206 0.114409
v 0.051630 -0.276206 0.114409
v -0.051630 -0.211399 0.211400
v 0.051630 -0.211399 0.211400
v -0.051630 -0.114408 0.276207
v 0.051630 -0.114408 0.276207
v -0.051630 -0.000000 0.298964
v 0.051630 0.000000 0.298964
v -0.051630 0.114408 0.276207
v 0.051630 0.114408 0.276207
v -0.051630 0.211399 0.211400
v 0.051630 0.211399 0.211400
v -0.051630 0.276206 0.114409
v 0.051630 0.276206 0.114409
v -0.051630 0.298964 0.000001
v 0.051630 0.298964 0.000001
v -0.051630 0.276206 -0.114408
v 0.051630 0.276206 -0.114408
v -0.051630 0.211399 -0.211399
v 0.051630 0.211399 -0.211399
v -0.051630 0.114408 -0.276206
v 0.051630 0.114408 -0.276206
v 0.051630 -0.100474 -0.278978
v -0.051630 -0.100474 -0.278978
v 0.051630 -0.143895 -0.249965
v 0.051630 0.143895 -0.249965
v 0.051630 0.100474 -0.278978
v 0.051630 0.203498 -0.106070
v 0.051630 0.188007 -0.028195
v 0.051630 0.188007 -0.183946
v 0.051630 0.143895 0.037824
v 0.051630 0.077875 0.081937
v 0.051630 -0.077875 0.081937
v 0.051630 0.000000 0.097427
v 0.051630 -0.203498 -0.106070
v 0.051630 -0.188007 -0.028195
v 0.051630 -0.188007 -0.183946
v 0.051630 -0.143895 0.037824
v -0.051630 0.100474 -0.278978
v -0.051630 -0.143895 -0.249965
v -0.051630 0.143895 -0.249965
v -0.051630 -0.188007 -0.183946
v -0.051630 0.203498 -0.106070
v -0.051630 0.188007 -0.183946
v -0.051630 -0.077875 0.081937
v -0.051630 -0.143895 0.037824
v -0.051630 -0.203498 -0.106070
v -0.051630 -0.188007 -0.028195
v -0.051630 0.143895 0.037824
v -0.051630 0.188007 -0.028195
v -0.051630 -0.000000 0.097427
v -0.051630 0.077875 0.081937
vn -0.0000 -0.1951 -0.9808
vn -0.0000 -0.5556 -0.8315
vn -0.0000 -0.8315 -0.5556
vn -0.0000 -0.9808 -0.1951
vn -0.0000 -0.9808 0.1951
vn -0.0000 -0.8315 0.5556
vn -0.0000 -0.5556 0.8315
vn -0.0000 -0.1951 0.9808
vn -0.0000 0.1951 0.9808
vn -0.0000 0.5556 0.8315
vn -0.0000 0.8315 0.5556
vn -0.0000 0.9808 0.1951
vn -0.0000 0.9808 -0.1951
vn -0.0000 0.8315 -0.5556
vn 1.0000 -0.0000 -0.0000
vn -0.0000 0.5556 -0.8315
vn -0.0000 0.1951 -0.9808
vn -1.0000 -0.0000 -0.0000
vt 0.945112 1.000000
vt 0.937500 1.000000
vt 0.937500 0.500000
vt 0.945112 0.500000
vt 0.875000 1.000000
vt 0.875000 0.500000
vt 0.812500 1.000000
vt 0.812500 0.500000
vt 0.750000 1.000000
vt 0.750000 0.500000
vt 0.687500 1.000000
vt 0.687500 0.500000
vt 0.625000 1.000000
vt 0.625000 0.500000
vt 0.562500 1.000000
vt 0.562500 0.500000
vt 0.500000 1.000000
vt 0.500000 0.500000
vt 0.437500 1.000000
vt 0.437500 0.500000
vt 0.375000 1.000000
vt 0.375000 0.500000
vt 0.312500 1.000000
vt 0.312500 0.500000
vt 0.250000 1.000000
vt 0.250000 0.500000
vt 0.187500 1.000000
vt 0.187500 0.500000
vt 0.125000 1.000000
vt 0.125000 0.500000
vt 0.187484 0.184224
vt 0.134485 0.219636
vt 0.080294 0.080294
vt 0.062500 1.000000
vt 0.062500 0.500000
vt 0.054888 1.000000
vt 0.054888 0.500000
vt 0.812516 0.184224
vt 0.865515 0.219636
vt 0.919706 0.080294
vt 0.916106 0.926821
vt 0.916106 0.573179
vt 0.875000 0.573179
vt 0.875000 0.926821
vt 0.812500 0.926821
vt 0.812500 0.573179
vt 0.750000 0.926821
vt 0.750000 0.573179
vt 0.687500 0.926821
vt 0.687500 0.573179
vt 0.625000 0.926821
vt 0.625000 0.573179
vt 0.562500 0.926821
vt 0.562500 0.573179
vt 0.500000 0.926821
vt 0.500000 0.573179
vt 0.437500 0.926821
vt 0.437500 0.573179
vt 0.375000 0.926821
vt 0.375000 0.573179
vt 0.312500 0.573179
vt 0.312500 0.926821
vt 0.250000 0.573179
vt 0.250000 0.926821
vt 0.187500 0.573179
vt 0.187500 0.926821
vt 0.125000 0.573179
vt 0.125000 0.926821
vt 0.083894 0.573179
vt 0.083894 0.926821
vt 0.169342 0.473956
vt 0.158156 0.471731
vt 0.134485 0.450666
vt 0.080294 0.419706
vt 0.028269 0.341844
vt 0.099073 0.397667
vt 0.010000 0.250000
vt 0.099073 0.272635
vt 0.086638 0.335151
vt 0.028269 0.158156
vt 0.158156 0.028269
vt 0.250000 0.010000
vt 0.250000 0.171788
vt 0.341844 0.028269
vt 0.419706 0.080294
vt 0.312516 0.184224
vt 0.471731 0.158156
vt 0.365515 0.219636
vt 0.490000 0.250000
vt 0.400927 0.272635
vt 0.471731 0.341844
vt 0.419706 0.419706
vt 0.400927 0.397667
vt 0.413362 0.335151
vt 0.341844 0.471731
vt 0.365515 0.450666
vt 0.330658 0.473956
vt 0.865515 0.450666
vt 0.830658 0.473956
vt 0.841844 0.471731
vt 0.919706 0.419706
vt 0.971731 0.341844
vt 0.900927 0.397667
vt 0.990000 0.250000
vt 0.900927 0.272635
vt 0.913362 0.335151
vt 0.971731 0.158156
vt 0.841844 0.028269
vt 0.750000 0.010000
vt 0.750000 0.171788
vt 0.658156 0.028269
vt 0.580294 0.080294
vt 0.687484 0.184224
vt 0.528269 0.158156
vt 0.634485 0.219636
vt 0.510000 0.250000
vt 0.599073 0.272635
vt 0.528269 0.341844
vt 0.580294 0.419706
vt 0.599073 0.397667
vt 0.586637 0.335151
vt 0.658156 0.471731
vt 0.634485 0.450666
vt 0.669342 0.473956
s 0
usemtl Material.002
f 31/1/1 2/2/1 1/3/1 32/4/1
f 1/3/2 2/2/2 4/5/2 3/6/2
f 3/6/3 4/5/3 6/7/3 5/8/3
f 5/8/4 6/7/4 8/9/4 7/10/4
f 7/10/5 8/9/5 10/11/5 9/12/5
f 9/12/6 10/11/6 12/13/6 11/14/6
f 11/14/7 12/13/7 14/15/7 13/16/7
f 13/16/8 14/15/8 16/17/8 15/18/8
f 15/18/9 16/17/9 18/19/9 17/20/9
f 17/20/10 18/19/10 20/21/10 19/22/10
f 19/22/11 20/21/11 22/23/11 21/24/11
f 21/24/12 22/23/12 24/25/12 23/26/12
f 23/26/13 24/25/13 26/27/13 25/28/13
f 25/28/14 26/27/14 28/29/14 27/30/14
f 40/31/15 39/32/15 20/33/15
f 27/30/16 28/29/16 30/34/16 29/35/16
f 29/35/17 30/34/17 35/36/17 47/37/17
f 53/38/18 54/39/18 11/40/18
f 31/41/10 32/42/10 48/43/10 33/44/10
f 45/45/11 33/44/11 48/43/11 50/46/11
f 43/47/12 45/45/12 50/46/12 55/48/12
f 44/49/13 43/47/13 55/48/13 56/50/13
f 46/51/14 44/49/14 56/50/14 54/52/14
f 41/53/16 46/51/16 54/52/16 53/54/16
f 42/55/17 41/53/17 53/54/17 59/56/17
f 40/57/1 42/55/1 59/56/1 60/58/1
f 39/59/2 40/57/2 60/58/2 57/60/2
f 58/61/3 37/62/3 39/59/3 57/60/3
f 51/63/4 36/64/4 37/62/4 58/61/4
f 52/65/5 38/66/5 36/64/5 51/63/5
f 49/67/6 34/68/6 38/66/6 52/65/6
f 47/69/7 35/70/7 34/68/7 49/67/7
f 35/71/15 30/72/15 34/73/15
f 30/72/15 28/74/15 34/73/15
f 28/74/15 26/75/15 38/76/15
f 26/75/15 24/77/15 37/78/15
f 36/79/15 26/75/15 37/78/15
f 24/77/15 22/80/15 37/78/15
f 22/80/15 20/33/15 39/32/15
f 37/78/15 22/80/15 39/32/15
f 20/33/15 18/81/15 40/31/15
f 18/81/15 16/82/15 42/83/15
f 16/82/15 14/84/15 42/83/15
f 14/84/15 12/85/15 41/86/15
f 42/83/15 14/84/15 41/86/15
f 12/85/15 10/87/15 46/88/15
f 10/87/15 8/89/15 44/90/15
f 8/89/15 6/91/15 44/90/15
f 6/91/15 4/92/15 45/93/15
f 43/94/15 6/91/15 45/93/15
f 4/92/15 2/95/15 33/96/15
f 2/95/15 31/97/15 33/96/15
f 10/87/15 44/90/15 46/88/15
f 6/91/15 43/94/15 44/90/15
f 18/81/15 42/83/15 40/31/15
f 26/75/15 36/79/15 38/76/15
f 38/76/15 34/73/15 28/74/15
f 4/92/15 33/96/15 45/93/15
f 12/85/15 46/88/15 41/86/15
f 48/98/18 32/99/18 1/100/18
f 3/101/18 5/102/18 50/103/18
f 5/102/18 7/104/18 56/105/18
f 55/106/18 5/102/18 56/105/18
f 7/104/18 9/107/18 56/105/18
f 9/107/18 11/40/18 54/39/18
f 56/105/18 9/107/18 54/39/18
f 11/40/18 13/108/18 53/38/18
f 13/108/18 15/109/18 59/110/18
f 15/109/18 17/111/18 59/110/18
f 17/111/18 19/112/18 60/113/18
f 59/110/18 17/111/18 60/113/18
f 19/112/18 21/114/18 57/115/18
f 21/114/18 23/116/18 58/117/18
f 23/116/18 25/118/18 58/117/18
f 25/118/18 27/119/18 52/120/18
f 51/121/18 25/118/18 52/120/18
f 27/119/18 29/122/18 49/123/18
f 29/122/18 47/124/18 49/123/18
f 21/114/18 58/117/18 57/115/18
f 25/118/18 51/121/18 58/117/18
f 13/108/18 59/110/18 53/38/18
f 5/102/18 55/106/18 50/103/18
f 48/98/18 1/100/18 3/101/18
f 50/103/18 48/98/18 3/101/18
f 27/119/18 49/123/18 52/120/18
f 19/112/18 57/115/18 60/113/18
