# Blender 4.0.2
# www.blender.org
mtllib FaebleBook.mtl
o Cube.002
v -0.019776 -0.046709 0.330271
v -0.500000 -0.075000 -0.350000
v -0.046706 0.057720 0.335983
v 0.500000 -0.075000 -0.350000
v 0.000000 -0.075000 -0.350000
v -0.020645 -0.075000 -0.350000
v -0.479816 -0.046709 0.335871
v 0.000000 0.039968 -0.335871
v 0.000000 0.039968 0.335871
v -0.479816 -0.046709 -0.335871
v 0.479816 -0.046709 -0.335871
v 0.479816 -0.046709 0.335871
v 0.000000 -0.047381 0.330019
v 0.000000 -0.047381 -0.330019
v -0.046706 0.057720 -0.335983
v -0.019776 -0.046709 -0.330271
v 0.020540 -0.075000 -0.350000
v 0.046880 0.057716 -0.335965
v 0.019813 -0.046709 -0.330230
v 0.046880 0.057716 0.335965
v 0.019813 -0.046709 0.330230
v -0.335964 0.068078 0.337719
v -0.463380 0.053370 0.338048
v -0.424758 0.065613 0.338124
v -0.463380 0.053370 -0.338048
v -0.335964 0.068078 -0.337719
v -0.424758 0.065613 -0.338124
v 0.335969 0.068075 -0.337713
v 0.463380 0.053370 -0.338048
v 0.424759 0.065612 -0.338122
v 0.463380 0.053370 0.338048
v 0.335969 0.068075 0.337713
v 0.424759 0.065612 0.338122
v -0.500000 -0.075000 0.315726
v -0.500000 -0.067656 0.350000
v -0.500000 -0.072849 0.339961
v 0.500000 -0.067656 0.350000
v 0.500000 -0.075000 0.315726
v 0.500000 -0.072849 0.339961
v -0.020645 -0.075000 0.315726
v -0.020645 -0.067656 0.350000
v -0.020645 -0.072849 0.339961
v 0.000000 -0.075000 0.315726
v 0.000000 -0.067656 0.350000
v 0.000000 -0.072849 0.339961
v 0.020540 -0.067656 0.350000
v 0.020540 -0.075000 0.315726
v 0.020540 -0.072849 0.339961
v -0.019991 -0.046709 -0.335141
v -0.020645 -0.049893 -0.350000
v -0.020454 -0.047642 -0.345648
v -0.478773 -0.046709 0.335141
v -0.500000 -0.049893 0.350000
v -0.493783 -0.047642 0.345648
v -0.500000 -0.049893 -0.350000
v -0.478773 -0.046709 -0.335141
v -0.493783 -0.047642 -0.345648
v 0.500000 -0.049893 -0.350000
v 0.478773 -0.046709 -0.335141
v 0.493783 -0.047642 -0.345648
v 0.478773 -0.046709 0.335141
v 0.500000 -0.049893 0.350000
v 0.493783 -0.047642 0.345648
v -0.019991 -0.046709 0.335141
v -0.020645 -0.049893 0.350000
v -0.020454 -0.047642 0.345648
v 0.000000 -0.049893 0.350000
v 0.000000 -0.047203 0.335321
v 0.000000 -0.047786 0.345701
v 0.000000 -0.047203 -0.335321
v 0.000000 -0.049893 -0.350000
v 0.000000 -0.047786 -0.345701
v 0.020540 -0.049893 -0.350000
v 0.019993 -0.046709 -0.335141
v 0.020380 -0.047642 -0.345648
v 0.020540 -0.049893 0.350000
v 0.019993 -0.046709 0.335141
v 0.020380 -0.047642 0.345648
vn 0.3553 0.9348 -0.0000
vn -0.0358 0.9994 -0.0000
vn -0.0000 -0.0000 1.0000
vn -0.0000 -0.0000 -1.0000
vn -0.0292 0.9994 -0.0169
vn -0.0000 -1.0000 -0.0000
vn 0.0293 0.9994 -0.0169
vn -0.0000 1.0000 -0.0000
vn -0.0292 0.9994 0.0169
vn 0.0358 0.9994 -0.0000
vn -0.0087 -0.0371 0.9993
vn -0.0087 -0.0371 -0.9993
vn -0.9868 0.1621 -0.0000
vn 0.0087 -0.0370 -0.9993
vn -0.3541 0.9352 -0.0000
vn 0.0126 -0.0621 0.9980
vn -0.0117 -0.0618 -0.9980
vn -0.0117 -0.0618 0.9980
vn 1.0000 -0.0000 -0.0000
vn 0.0293 0.9994 0.0169
vn -1.0000 -0.0000 -0.0000
vn 0.9868 0.1621 -0.0000
vn 0.0126 -0.0621 -0.9980
vn -0.0277 0.9996 -0.0000
vn -0.3022 0.9532 -0.0000
vn 0.0277 0.9996 -0.0000
vn 0.3022 0.9533 -0.0000
vn 0.0087 -0.0370 0.9993
vn -0.0000 -0.9961 0.0884
vn -0.0000 -0.8882 0.4595
vn -0.0000 0.9961 -0.0884
vn -0.0000 0.8882 -0.4595
vn 0.0153 0.9972 0.0727
vn 0.0026 0.8931 0.4499
vn -0.0000 0.9961 0.0884
vn -0.0000 0.8882 0.4595
vn 0.0620 0.9981 -0.0000
vn 0.3405 0.9402 -0.0000
vn -0.0620 0.9981 -0.0000
vn -0.3405 0.9402 -0.0000
vn -0.0153 0.9972 0.0727
vn -0.0026 0.8931 0.4499
vn 0.0153 0.9972 -0.0727
vn 0.0026 0.8931 -0.4499
vn -0.0153 0.9972 -0.0727
vn -0.0026 0.8931 -0.4499
vt 0.750000 0.500000
vt 0.755383 0.500000
vt 0.755383 0.750000
vt 0.750000 0.750000
vt 0.661224 0.500000
vt 0.745494 0.500000
vt 0.745494 0.750000
vt 0.661224 0.750000
vt 0.387241 0.880383
vt 0.416845 0.880383
vt 0.416845 1.000000
vt 0.387241 1.000000
vt 0.375000 0.369617
vt 0.416845 0.369617
vt 0.416845 0.375000
vt 0.375000 0.375000
vt 0.422152 0.875000
vt 0.422152 0.870494
vt 0.387241 0.875000
vt 0.416845 0.875000
vt 0.387241 0.880383
vt 0.422152 0.249984
vt 0.422152 0.000016
vt 0.422152 0.000000
vt 0.422152 0.250000
vt 0.422152 0.880383
vt 0.422152 0.880383
vt 0.422152 0.750023
vt 0.422152 0.750000
vt 0.422152 0.499977
vt 0.422152 0.379506
vt 0.422152 0.500000
vt 0.422152 0.999977
vt 0.422152 1.000000
vt 0.250000 0.500000
vt 0.254506 0.500000
vt 0.254506 0.737759
vt 0.250000 0.737759
vt 0.416845 0.375000
vt 0.416845 0.379506
vt 0.375000 0.379506
vt 0.422152 0.375000
vt 0.387241 0.750000
vt 0.416845 0.750000
vt 0.416845 0.870494
vt 0.387241 0.870494
vt 0.416845 0.500000
vt 0.375000 0.500000
vt 0.839054 0.500000
vt 0.839054 0.750000
vt 0.592407 0.750000
vt 0.615191 0.760489
vt 0.625000 0.786224
vt 0.625000 0.870494
vt 0.625000 0.379506
vt 0.625000 0.463776
vt 0.615191 0.489511
vt 0.592407 0.500000
vt 0.592407 0.000000
vt 0.592407 0.250000
vt 0.592407 0.250000
vt 0.615192 0.260409
vt 0.625000 0.285946
vt 0.625000 0.369617
vt 0.422152 0.369617
vt 0.625000 0.875000
vt 0.625000 0.375000
vt 0.625000 0.880383
vt 0.387241 0.750000
vt 0.378585 0.746415
vt 0.375000 0.737759
vt 0.244617 0.500000
vt 0.244617 0.737759
vt 0.375000 0.012241
vt 0.378585 0.003585
vt 0.387241 0.000000
vt 0.416845 0.000000
vt 0.416845 0.250000
vt 0.375000 0.250000
vt 0.422152 0.369617
vt 0.422152 0.250023
vt 0.592407 0.500000
vt 0.592407 0.750000
vt 0.387241 0.870494
vt 0.387241 0.875000
vt 0.422152 0.749984
vt 0.422152 0.500016
vt 0.375000 0.737759
vt 0.875000 0.500126
vt 0.875000 0.749874
vt 0.625000 0.000126
vt 0.625000 0.249874
vt 0.625000 0.749874
vt 0.625000 0.500126
vt 0.625000 0.964054
vt 0.615192 0.989591
vt 0.592407 1.000000
vt 0.375000 0.750000
vt 0.254506 0.750000
vt 0.375000 0.870494
vt 0.125000 0.737759
vt 0.244617 0.737759
vt 0.244617 0.750000
vt 0.125000 0.750000
vt 0.375000 1.000000
vt 0.375000 0.880383
vt 0.250000 0.750000
vt 0.375000 0.875000
vt 0.125000 0.500000
vt 0.422152 0.369642
vt 0.422152 0.249999
vt 0.422152 0.880358
vt 0.422152 0.998449
vt 0.422152 0.750004
vt 0.422152 0.499996
vt 0.422152 0.379489
vt 0.422152 0.001554
vt 0.422152 0.870511
s 0
f 8/1/1 15/2/1 3/3/1 9/4/1
f 28/5/2 18/6/2 20/7/2 32/8/2
f 41/9/3 65/10/3 53/11/3 35/12/3
f 6/13/4 50/14/4 71/15/4 5/16/4
f 68/17/5 77/18/5 21/18/5 13/17/5
f 44/19/3 67/20/3 65/10/3 41/21/3
f 56/22/6 52/23/6 7/24/6 10/25/6
f 64/26/7 68/17/7 13/17/7 1/27/7
f 77/18/8 61/28/8 12/29/8 21/18/8
f 59/30/8 74/31/8 19/31/8 11/32/8
f 52/33/8 64/26/8 1/27/8 7/34/8
f 5/35/6 17/36/6 47/37/6 43/38/6
f 5/16/4 71/39/4 73/40/4 17/41/4
f 74/31/9 70/42/9 14/42/9 19/31/9
f 37/43/3 62/44/3 76/45/3 46/46/3
f 17/41/4 73/40/4 58/47/4 4/48/4
f 15/2/10 26/49/10 22/50/10 3/3/10
f 12/29/11 31/51/11 33/52/11 32/53/11 20/54/11 21/18/11
f 19/31/12 18/55/12 28/56/12 30/57/12 29/58/12 11/32/12
f 7/24/13 23/59/13 25/60/13 10/25/13
f 10/25/14 25/61/14 27/62/14 26/63/14 15/64/14 16/65/14
f 18/6/15 8/1/15 9/4/15 20/7/15
f 21/18/16 20/54/16 9/66/16 13/17/16
f 16/65/17 15/64/17 8/67/17 14/42/17
f 13/17/18 9/66/18 3/68/18 1/27/18
f 4/48/19 58/47/19 62/44/19 37/69/19 39/70/19 38/71/19
f 70/42/20 49/65/20 16/65/20 14/42/20
f 6/72/6 5/35/6 43/38/6 40/73/6
f 34/74/21 36/75/21 35/76/21 53/77/21 55/78/21 2/79/21
f 49/80/8 56/81/8 10/25/8 16/65/8
f 11/32/22 29/82/22 31/83/22 12/29/22
f 14/42/23 8/67/23 18/55/23 19/31/23
f 46/84/3 76/45/3 67/20/3 44/85/3
f 61/86/6 59/87/6 11/32/6 12/29/6
f 17/36/6 4/48/6 38/88/6 47/37/6
f 22/50/24 26/49/24 27/89/24 24/90/24
f 24/91/25 27/92/25 25/60/25 23/59/25
f 28/5/26 32/8/26 33/93/26 30/94/26
f 30/94/27 33/93/27 31/83/27 29/82/27
f 1/27/28 3/68/28 22/95/28 24/96/28 23/97/28 7/34/28
f 47/37/29 38/88/29 39/98/29 48/99/29
f 48/100/30 39/98/30 37/43/30 46/46/30
f 34/101/29 40/102/29 42/103/29 36/104/29
f 36/105/30 42/106/30 41/9/30 35/12/30
f 40/73/29 43/38/29 45/107/29 42/103/29
f 42/106/30 45/108/30 44/19/30 41/21/30
f 43/38/29 47/37/29 48/99/29 45/107/29
f 45/108/30 48/100/30 46/84/30 44/85/30
f 2/109/6 6/72/6 40/102/6 34/101/6
f 56/81/31 49/80/31 51/110/31 57/111/31
f 57/111/32 51/110/32 50/14/32 55/78/32
f 68/17/33 64/26/33 66/112/33 69/17/33
f 69/17/34 66/112/34 65/10/34 67/20/34
f 64/26/35 52/33/35 54/113/35 66/112/35
f 66/112/36 54/113/36 53/11/36 65/10/36
f 59/87/37 61/86/37 63/114/37 60/115/37
f 60/115/38 63/114/38 62/44/38 58/47/38
f 74/31/31 59/30/31 60/115/31 75/116/31
f 75/116/32 60/115/32 58/47/32 73/40/32
f 52/23/39 56/22/39 57/111/39 54/117/39
f 54/117/40 57/111/40 55/78/40 53/77/40
f 77/18/41 68/17/41 69/17/41 78/118/41
f 78/118/42 69/17/42 67/20/42 76/45/42
f 49/65/43 70/42/43 72/42/43 51/110/43
f 51/110/44 72/42/44 71/15/44 50/14/44
f 70/42/45 74/31/45 75/116/45 72/42/45
f 72/42/46 75/116/46 73/40/46 71/39/46
f 61/28/35 77/18/35 78/118/35 63/114/35
f 63/114/36 78/118/36 76/45/36 62/44/36
f 2/79/4 55/78/4 50/14/4 6/13/4
