# Blender 4.0.2
# www.blender.org
mtllib DistanceMarker.mtl
o Cylinder.001
v -0.349486 -0.236783 0.017924
v -0.349486 0.205491 0.017924
v -1.576399 -0.236783 0.526129
v -1.576399 0.205491 0.526129
v -1.801288 -0.236783 0.017924
v -1.801288 0.205491 0.017924
v -1.576399 -0.236783 -0.490280
v -1.576399 0.205491 -0.490280
v -1.666624 -0.236783 0.694928
v -0.032194 -0.236783 0.017924
v -0.032194 0.205491 0.017924
v -1.666624 0.205491 0.694928
v -1.677487 -0.236783 0.017924
v -1.677487 0.205491 0.017924
v -1.666624 -0.236783 -0.659079
v -1.666624 0.205491 -0.659079
vn -0.9808 -0.0000 0.1951
vn -0.9808 -0.0000 -0.1951
vn 0.3827 -0.0000 -0.9239
vn 0.3827 -0.0000 0.9239
vn -0.0000 -1.0000 -0.0000
vn -0.0000 1.0000 -0.0000
vn -0.3827 -0.0000 0.9239
vn 0.9808 -0.0000 0.1951
vn 0.9808 -0.0000 -0.1951
vn -0.3827 -0.0000 -0.9239
vt 0.312500 0.500000
vt 0.312500 1.000000
vt 0.250000 1.000000
vt 0.250000 0.500000
vt 0.187500 1.000000
vt 0.187500 0.500000
vt 0.250000 0.250000
vt 0.750000 0.250000
vt 0.540509 0.181056
vt 0.706955 0.250000
vt 0.528269 0.158156
vt 0.206955 0.250000
vt 0.040509 0.181056
vt 0.028269 0.158156
vt 0.526795 0.250000
vt 0.510000 0.250000
vt 0.026795 0.250000
vt 0.010000 0.250000
vt 0.540509 0.318944
vt 0.528269 0.341844
vt 0.040509 0.318944
vt 0.028269 0.341844
s 0
usemtl Material.002
f 9/1/1 12/2/1 6/3/1 5/4/1
f 5/4/2 6/3/2 16/5/2 15/6/2
f 15/6/3 16/5/3 11/7/3 10/8/3
f 9/1/4 10/8/4 11/7/4 12/2/4
f 3/9/5 1/10/5 10/8/5 9/11/5
f 2/12/6 4/13/6 12/14/6 11/7/6
f 13/15/5 3/9/5 9/11/5 5/16/5
f 4/13/6 14/17/6 6/18/6 12/14/6
f 1/10/5 7/19/5 15/20/5 10/8/5
f 7/19/5 13/15/5 5/16/5 15/20/5
f 8/21/6 2/12/6 11/7/6 16/22/6
f 14/17/6 8/21/6 16/22/6 6/18/6
f 7/19/7 1/10/7 2/12/7 8/21/7
f 14/17/8 13/15/8 7/19/8 8/21/8
f 4/13/9 3/9/9 13/15/9 14/17/9
f 4/13/10 2/12/10 1/10/10 3/9/10
