# Blender 4.0.2
# www.blender.org
mtllib DistanceMeter.mtl
o Cylinder
v 0.000000 -0.250000 0.000000
v -0.167669 0.250000 0.000000
v 0.000000 -0.250000 -2.000000
v -0.167669 0.250000 -1.795695
v 0.000000 -0.250000 2.000000
v -0.167669 0.250000 1.795695
v -0.765367 -0.250000 1.847759
v -0.765367 0.250000 1.847759
v -1.414214 -0.250000 1.414214
v -1.414214 0.250000 1.414214
v -1.847759 -0.250000 0.765367
v -1.847759 0.250000 0.765367
v -2.000000 -0.250000 0.000000
v -2.000000 0.250000 0.000000
v -1.847759 -0.250000 -0.765367
v -1.847759 0.250000 -0.765367
v -1.414214 -0.250000 -1.414214
v -1.414214 0.250000 -1.414214
v -0.765367 -0.250000 -1.847759
v -0.765367 0.250000 -1.847759
v 0.000000 0.250000 -2.000000
v 0.000000 0.250000 0.000000
v 0.000000 0.250000 2.000000
v -0.699946 0.250000 1.689819
v -1.293331 0.250000 1.293331
v -1.689819 0.250000 0.699946
v -1.829047 0.250000 0.000000
v -1.689819 0.250000 -0.699946
v -1.293331 0.250000 -1.293331
v -0.699946 0.250000 -1.689819
v -0.167669 -0.221892 0.000000
v -0.699946 -0.221892 1.689819
v -1.293331 -0.221892 1.293331
v -1.689819 -0.221892 0.699946
v -1.829047 -0.221892 0.000000
v -1.689819 -0.221892 -0.699946
v -1.293331 -0.221892 -1.293331
v -0.699946 -0.221892 -1.689819
v -0.167669 -0.221892 -1.795695
v -0.167669 -0.221892 1.795695
v -0.928744 -0.221892 0.349973
vn -0.0000 -1.0000 -0.0000
vn 0.8315 -0.0000 -0.5556
vn -0.1951 -0.0000 0.9808
vn 0.8315 -0.0000 0.5556
vn -0.5556 -0.0000 0.8315
vn -1.0000 -0.0000 -0.0000
vn -0.8315 -0.0000 0.5556
vn 0.5556 -0.0000 -0.8315
vn -0.9808 -0.0000 0.1951
vn 0.9808 -0.0000 0.1951
vn -0.9808 -0.0000 -0.1951
vn 0.1951 -0.0000 0.9808
vn -0.8315 -0.0000 -0.5556
vn 0.1951 -0.0000 -0.9808
vn -0.5556 -0.0000 -0.8315
vn 0.9808 -0.0000 -0.1951
vn -0.1951 -0.0000 -0.9808
vn 1.0000 -0.0000 -0.0000
vn -0.0000 1.0000 -0.0000
vn 0.5556 -0.0000 0.8315
vt 0.750000 0.250000
vt 0.750000 0.010000
vt 0.658156 0.028269
vt 0.047222 0.166007
vt 0.094800 0.094800
vt 0.500000 0.500000
vt 0.500000 1.000000
vt 0.437500 1.000000
vt 0.437500 0.500000
vt 0.580294 0.080294
vt 0.094800 0.405200
vt 0.047222 0.333994
vt 0.375000 1.000000
vt 0.375000 0.500000
vt 0.528269 0.158156
vt 0.229880 0.250000
vt 0.229880 0.465483
vt 0.312500 1.000000
vt 0.312500 0.500000
vt 0.510000 0.250000
vt 0.166007 0.047222
vt 0.250000 1.000000
vt 0.250000 0.500000
vt 0.528269 0.341844
vt 0.030514 0.250000
vt 0.187500 1.000000
vt 0.187500 0.500000
vt 0.580294 0.419706
vt 0.166007 0.452778
vt 0.125000 1.000000
vt 0.125000 0.500000
vt 0.658156 0.471731
vt 0.229880 0.034517
vt 0.062500 1.000000
vt 0.062500 0.500000
vt 0.750000 0.490000
vt 0.000000 1.000000
vt 0.000000 0.500000
vt 0.250000 0.250000
vt 1.000000 0.500000
vt 0.250000 0.490000
vt 0.250000 0.010000
vt 0.158156 0.028269
vt 0.080294 0.080294
vt 0.028269 0.158156
vt 0.010000 0.250000
vt 0.028269 0.341844
vt 0.080294 0.419706
vt 0.158156 0.471731
vt 0.138551 0.208003
s 0
usemtl Material.001
f 1/1/1 5/2/1 7/3/1
f 26/4/2 25/5/2 33/5/2 34/4/2
f 5/6/3 23/7/3 8/8/3 7/9/3
f 1/1/1 7/3/1 9/10/1
f 29/11/4 28/12/4 36/12/4 37/11/4
f 7/9/5 8/8/5 10/13/5 9/14/5
f 1/1/1 9/10/1 11/15/1
f 2/16/6 4/17/6 39/17/6 31/16/6
f 9/14/7 10/13/7 12/18/7 11/19/7
f 1/1/1 11/15/1 13/20/1
f 25/5/8 24/21/8 32/21/8 33/5/8
f 11/19/9 12/18/9 14/22/9 13/23/9
f 1/1/1 13/20/1 15/24/1
f 28/12/10 27/25/10 35/25/10 36/12/10
f 13/23/11 14/22/11 16/26/11 15/27/11
f 1/1/1 15/24/1 17/28/1
f 4/17/12 30/29/12 38/29/12 39/17/12
f 15/27/13 16/26/13 18/30/13 17/31/13
f 1/1/1 17/28/1 19/32/1
f 24/21/14 6/33/14 40/33/14 32/21/14
f 17/31/15 18/30/15 20/34/15 19/35/15
f 1/1/1 19/32/1 3/36/1
f 27/25/16 26/4/16 34/4/16 35/25/16
f 19/35/17 20/34/17 21/37/17 3/38/17
f 1/1/18 22/39/18 23/7/18 5/2/18
f 22/39/18 1/1/18 3/40/18 21/41/18
f 4/17/19 2/16/19 22/39/19 21/41/19
f 2/16/19 6/33/19 23/42/19 22/39/19
f 6/33/19 24/21/19 8/43/19 23/42/19
f 24/21/19 25/5/19 10/44/19 8/43/19
f 25/5/19 26/4/19 12/45/19 10/44/19
f 26/4/19 27/25/19 14/46/19 12/45/19
f 27/25/19 28/12/19 16/47/19 14/46/19
f 28/12/19 29/11/19 18/48/19 16/47/19
f 29/11/19 30/29/19 20/49/19 18/48/19
f 30/29/19 4/17/19 21/41/19 20/49/19
f 31/16/19 32/21/19 40/33/19
f 31/16/19 33/5/19 32/21/19
f 31/16/19 41/50/19 34/4/19 33/5/19
f 31/16/19 35/25/19 34/4/19 41/50/19
f 31/16/19 36/12/19 35/25/19
f 31/16/19 37/11/19 36/12/19
f 31/16/19 38/29/19 37/11/19
f 31/16/19 39/17/19 38/29/19
f 6/33/6 2/16/6 31/16/6 40/33/6
f 30/29/20 29/11/20 37/11/20 38/29/20
