# Blender 4.0.2
# www.blender.org
mtllib HeartCutout.mtl
o Heart
v -0.054096 -0.313242 0.012562
v -0.054096 -0.047034 0.307865
v -0.054096 -0.313242 -0.012562
v -0.054096 -0.047034 -0.307865
v 0.054096 -0.313242 0.012562
v 0.054096 -0.047034 0.307865
v 0.054096 -0.313242 -0.012562
v 0.054096 -0.047034 -0.307865
v -0.054096 0.116086 0.309558
v -0.054096 0.116086 -0.309558
v 0.054096 0.116086 -0.309558
v 0.054096 0.116086 0.309558
v -0.054096 -0.313242 0.000000
v -0.054096 -0.047034 0.000000
v 0.054096 -0.313242 0.000000
v 0.054096 -0.047034 0.000000
v -0.054096 0.182688 0.000000
v 0.054096 0.182688 0.000000
v -0.054096 -0.180138 0.136119
v -0.054096 -0.180138 -0.136119
v 0.054096 -0.180138 -0.136119
v 0.054096 -0.180138 0.136119
v 0.054096 -0.180138 0.000000
v -0.054096 -0.180138 0.000000
v 0.054096 0.200862 0.013027
v -0.054096 0.200862 0.013027
v -0.054096 0.200862 0.252165
v 0.054096 0.200862 0.252165
v 0.054096 0.200862 -0.252165
v -0.054096 0.200862 -0.252165
v -0.054096 0.200862 -0.013027
v 0.054096 0.200862 -0.013027
v -0.054096 0.230172 0.061640
v 0.054096 0.230172 0.061640
v -0.054096 0.230172 0.218543
v 0.054096 0.230172 0.218543
v -0.054096 0.230172 -0.218543
v 0.054096 0.230172 -0.218543
v -0.054096 0.230172 -0.061640
v 0.054096 0.230172 -0.061640
v -0.054096 0.034526 -0.315960
v 0.054096 0.034526 -0.315960
v 0.054096 0.034526 0.315960
v -0.054096 0.034526 0.315960
v -0.054096 0.034526 -0.000000
v 0.054096 0.034526 -0.000000
v -0.054096 0.239898 0.100866
v 0.054096 0.239898 0.100866
v -0.054096 0.239898 0.179317
v 0.054096 0.239898 0.179317
v -0.054096 0.239898 -0.187163
v 0.054096 0.239898 -0.187163
v -0.054096 0.239898 -0.093021
v 0.054096 0.239898 -0.093021
v -0.054096 -0.246690 -0.063270
v 0.054096 -0.246690 -0.063270
v 0.054096 -0.246690 0.063270
v 0.054096 -0.246690 0.000000
v -0.054096 -0.246690 0.000000
v -0.054096 -0.246690 0.063270
v -0.054096 -0.113586 0.264258
v -0.054096 -0.113586 -0.264258
v 0.054096 -0.113586 -0.264258
v 0.054096 -0.113586 0.264258
v 0.054096 -0.113586 0.000000
v -0.054096 -0.113586 0.000000
vn -1.0000 -0.0000 -0.0000
vn -0.0000 -0.5481 -0.8364
vn 1.0000 -0.0000 -0.0000
vn -0.0000 -0.5481 0.8364
vn -0.0000 -1.0000 -0.0000
vn -0.0000 0.0783 -0.9969
vn -0.0000 0.0783 0.9969
vn -0.0000 -0.7383 0.6745
vn -0.0000 -0.7383 -0.6745
vn -0.0000 0.7538 -0.6571
vn -0.0000 0.5826 -0.8128
vn -0.0000 0.5606 0.8281
vn -0.0000 0.8564 0.5163
vn -0.0000 0.5606 -0.8281
vn -0.0000 0.5826 0.8128
vn -0.0000 0.7538 0.6571
vn -0.0000 0.8564 -0.5163
vn -0.0000 -0.0988 0.9951
vn -0.0000 -0.0988 -0.9951
vn -0.0000 1.0000 -0.0000
vn -0.0000 0.9552 0.2960
vn -0.0000 0.9552 -0.2960
vn -0.0000 0.9706 0.2407
vn -0.0000 0.9706 -0.2407
vn -0.0000 -0.6061 -0.7954
vn -0.0000 -0.6061 0.7954
vn -0.0000 -0.8874 0.4609
vn -0.0000 -0.8874 -0.4609
vt 0.562500 0.125000
vt 0.625000 0.125000
vt 0.625000 0.250000
vt 0.562500 0.250000
vt 0.625000 0.500000
vt 0.562500 0.500000
vt 0.562500 0.625000
vt 0.625000 0.625000
vt 0.625000 0.750000
vt 0.562500 0.750000
vt 0.625000 1.000000
vt 0.562500 1.000000
vt 0.125000 0.625000
vt 0.375000 0.625000
vt 0.375000 0.750000
vt 0.125000 0.750000
vt 0.625000 0.000000
vt 0.125000 0.500000
vt 0.375000 0.500000
vt 0.562500 0.000000
vt 0.437500 0.000000
vt 0.500000 0.000000
vt 0.500000 0.125000
vt 0.437500 0.125000
vt 0.437500 0.500000
vt 0.500000 0.500000
vt 0.500000 0.625000
vt 0.437500 0.625000
vt 0.437500 0.750000
vt 0.500000 0.750000
vt 0.500000 1.000000
vt 0.437500 1.000000
vt 0.437500 0.250000
vt 0.500000 0.250000
vt 0.875000 0.500000
vt 0.875000 0.625000
vt 0.875000 0.750000
vt 0.375000 0.125000
vt 0.375000 0.250000
vt 0.375000 1.000000
vt 0.375000 0.000000
s 0
usemtl Material.001
f 66/1/1 14/2/1 4/3/1 62/4/1
f 62/4/2 4/3/2 8/5/2 63/6/2
f 65/7/3 16/8/3 6/9/3 64/10/3
f 64/10/4 6/9/4 2/11/4 61/12/4
f 13/13/5 15/14/5 5/15/5 1/16/5
f 42/5/6 41/3/6 10/3/6 11/5/6
f 46/8/3 42/5/3 11/5/3 18/8/3
f 45/2/1 44/17/1 9/17/1 17/2/1
f 44/11/7 43/9/7 12/9/7 9/11/7
f 41/3/1 45/2/1 17/2/1 10/3/1
f 43/9/3 46/8/3 18/8/3 12/9/3
f 3/18/5 7/19/5 15/14/5 13/13/5
f 63/6/3 8/5/3 16/8/3 65/7/3
f 61/20/1 2/17/1 14/2/1 66/1/1
f 60/21/1 19/22/1 24/23/1 59/24/1
f 56/25/3 21/26/3 23/27/3 58/28/3
f 57/29/8 22/30/8 19/31/8 60/32/8
f 58/28/3 23/27/3 22/30/3 57/29/3
f 55/33/9 20/34/9 21/26/9 56/25/9
f 59/24/1 24/23/1 20/34/1 55/33/1
f 29/5/10 30/35/10 37/35/10 38/5/10
f 17/36/11 26/36/11 25/8/11 18/8/11
f 9/37/1 27/37/1 26/36/1 17/36/1
f 12/9/12 28/9/12 27/37/12 9/37/12
f 18/8/3 25/8/3 28/9/3 12/9/3
f 31/36/13 32/8/13 40/8/13 39/36/13
f 10/35/14 30/35/14 29/5/14 11/5/14
f 17/36/1 31/36/1 30/35/1 10/35/1
f 18/8/15 32/8/15 31/36/15 17/36/15
f 11/5/3 29/5/3 32/8/3 18/8/3
f 36/9/3 34/8/3 48/8/3 50/9/3
f 37/35/1 39/36/1 53/36/1 51/35/1
f 27/37/16 28/9/16 36/9/16 35/37/16
f 32/8/3 29/5/3 38/5/3 40/8/3
f 25/8/17 26/36/17 33/36/17 34/8/17
f 30/35/1 31/36/1 39/36/1 37/35/1
f 28/9/3 25/8/3 34/8/3 36/9/3
f 26/36/1 27/37/1 35/37/1 33/36/1
f 6/9/3 16/8/3 46/8/3 43/9/3
f 4/3/1 14/2/1 45/2/1 41/3/1
f 2/11/18 6/9/18 43/9/18 44/11/18
f 14/2/1 2/17/1 44/17/1 45/2/1
f 16/8/3 8/5/3 42/5/3 46/8/3
f 8/5/19 4/3/19 41/3/19 42/5/19
f 48/8/20 47/36/20 49/37/20 50/9/20
f 52/5/20 51/35/20 53/36/20 54/8/20
f 33/36/1 35/37/1 49/37/1 47/36/1
f 39/36/21 40/8/21 54/8/21 53/36/21
f 38/5/22 37/35/22 51/35/22 52/5/22
f 35/37/23 36/9/23 50/9/23 49/37/23
f 34/8/24 33/36/24 47/36/24 48/8/24
f 40/8/3 38/5/3 52/5/3 54/8/3
f 13/38/1 59/24/1 55/33/1 3/39/1
f 3/39/25 55/33/25 56/25/25 7/19/25
f 15/14/3 58/28/3 57/29/3 5/15/3
f 5/15/26 57/29/26 60/32/26 1/40/26
f 7/19/3 56/25/3 58/28/3 15/14/3
f 1/41/1 60/21/1 59/24/1 13/38/1
f 19/22/1 61/20/1 66/1/1 24/23/1
f 21/26/3 63/6/3 65/7/3 23/27/3
f 22/30/27 64/10/27 61/12/27 19/31/27
f 23/27/3 65/7/3 64/10/3 22/30/3
f 20/34/28 62/4/28 63/6/28 21/26/28
f 24/23/1 66/1/1 62/4/1 20/34/1
