# Blender 4.0.2
# www.blender.org
mtllib ShieldCutoutHalf.mtl
o Shield.001
v -0.054096 -0.296706 0.012562
v -0.054096 -0.047034 0.233121
v 0.054096 -0.296706 0.012562
v 0.054096 -0.047034 0.233121
v -0.054096 0.112238 0.246503
v 0.054096 0.112238 0.246503
v -0.054096 -0.296706 0.000000
v -0.054096 0.001257 0.057214
v 0.054096 -0.296706 0.000000
v 0.054096 0.001257 0.057214
v -0.054096 0.236078 0.000000
v 0.054096 0.236078 0.000000
v -0.054096 -0.180138 0.159524
v 0.054096 -0.180138 0.159524
v 0.054096 -0.131847 -0.063650
v -0.054096 -0.131847 -0.063650
v 0.054096 0.034526 0.251601
v -0.054096 0.034526 0.251601
v -0.054096 0.082816 -0.001098
v 0.054096 0.082816 -0.001098
v 0.054096 -0.246690 0.086044
v 0.054096 -0.198399 -0.001099
v -0.054096 -0.198399 -0.001099
v -0.054096 -0.246690 0.086044
v -0.054096 -0.113586 0.203354
v 0.054096 -0.113586 0.203354
v 0.054096 -0.065295 -0.001098
v -0.054096 -0.065295 -0.001098
v -0.054096 -0.296706 0.006281
v 0.054096 -0.047034 0.116561
v 0.054096 0.148202 0.123252
v -0.054096 -0.047034 0.116561
v 0.054096 -0.296706 0.006281
v -0.054096 0.148202 0.123252
v -0.054096 -0.180138 0.079762
v 0.054096 -0.180138 0.079762
v 0.054096 0.031605 0.125801
v -0.054096 0.031605 0.125801
v 0.054096 -0.246690 0.043022
v -0.054096 -0.246690 0.043022
v -0.054096 -0.113586 0.101677
v 0.054096 -0.113586 0.101677
v -0.054096 0.001257 0.075143
v 0.054096 -0.296706 0.003141
v -0.054096 0.189119 0.061626
v -0.054096 -0.131847 0.051073
v -0.054096 0.081528 0.081186
v -0.054096 -0.198399 0.027042
v -0.054096 -0.065295 0.065408
v -0.054096 -0.296706 0.003141
v 0.054096 0.001257 0.075143
v 0.054096 0.189119 0.061626
v 0.054096 -0.131847 0.051073
v 0.054096 0.081528 0.081186
v 0.054096 -0.198399 0.027042
v 0.054096 -0.065295 0.065408
v -0.054096 -0.296706 0.009422
v 0.054096 -0.047034 0.174841
v 0.054096 0.127199 0.184878
v 0.054096 -0.180138 0.119643
v 0.054096 0.033454 0.188701
v 0.054096 -0.246690 0.064533
v 0.054096 -0.113586 0.152516
v -0.054096 -0.047034 0.174841
v 0.054096 -0.296706 0.009422
v -0.054096 0.127199 0.184878
v -0.054096 -0.180138 0.119643
v -0.054096 0.033454 0.188701
v -0.054096 -0.246690 0.064533
v -0.054096 -0.113586 0.152516
vn 1.0000 -0.0000 -0.0000
vn -0.0000 -0.4083 0.9129
vn -0.0000 -1.0000 -0.0000
vn -1.0000 -0.0000 -0.0000
vn -0.0000 0.0655 0.9979
vn -0.0000 -0.7412 0.6713
vn -0.0000 -0.2210 0.9753
vn -0.0000 -0.8267 0.5627
vn -0.0000 -0.5500 0.8352
vn -0.0000 0.9718 0.2359
vn -0.0000 0.8331 0.5531
vn -0.0000 0.7954 0.6061
vn -0.0000 -0.0112 -0.9999
vn -0.0000 -0.6849 -0.7287
vn -0.0000 0.6849 -0.7287
vn -0.0000 0.6590 -0.7521
vn -0.0000 -0.5816 -0.8135
vn -0.0000 0.0072 -1.0000
vn -0.0000 0.9465 0.3226
vt 0.562500 0.718750
vt 0.625000 0.718750
vt 0.625000 0.750000
vt 0.562500 0.750000
vt 0.625000 1.000000
vt 0.562500 1.000000
vt 0.125000 0.718750
vt 0.375000 0.718750
vt 0.375000 0.750000
vt 0.125000 0.750000
vt 0.625000 0.031250
vt 0.625000 0.000000
vt 0.625000 0.031250
vt 0.625000 0.656250
vt 0.625000 0.625000
vt 0.562500 0.093750
vt 0.625000 0.093750
vt 0.625000 0.125000
vt 0.562500 0.125000
vt 0.437500 0.093750
vt 0.500000 0.093750
vt 0.500000 0.125000
vt 0.437500 0.125000
vt 0.437500 0.750000
vt 0.500000 0.750000
vt 0.500000 1.000000
vt 0.437500 1.000000
vt 0.437500 0.718750
vt 0.500000 0.718750
vt 0.375000 1.000000
vt 0.375000 0.093750
vt 0.375000 0.125000
vt 0.625000 0.093750
vt 0.625000 0.062500
vt 0.625000 0.687500
vt 0.500000 0.656250
vt 0.562500 0.656250
vt 0.562500 0.687500
vt 0.500000 0.687500
vt 0.500000 0.031250
vt 0.562500 0.031250
vt 0.562500 0.062500
vt 0.500000 0.062500
vt 0.375000 0.031250
vt 0.437500 0.031250
vt 0.437500 0.062500
vt 0.375000 0.062500
vt 0.375000 0.656250
vt 0.437500 0.656250
vt 0.437500 0.687500
vt 0.375000 0.687500
vt 0.625000 0.093750
vt 0.625000 0.687500
vt 0.125000 0.656250
vt 0.125000 0.687500
vt 0.562500 0.625000
vt 0.125000 0.625000
vt 0.375000 0.625000
vt 0.437500 0.625000
vt 0.500000 0.625000
vt 0.562500 0.000000
vt 0.437500 0.000000
vt 0.500000 0.000000
vt 0.375000 0.000000
s 0
usemtl Material.003
f 63/1/1 58/2/1 4/3/1 26/4/1
f 26/4/2 4/3/2 2/5/2 25/6/2
f 57/7/3 65/8/3 3/9/3 1/10/3
f 68/11/4 18/12/4 5/12/4 66/13/4
f 18/5/5 17/3/5 6/3/5 5/5/5
f 54/14/1 20/15/1 12/15/1 52/14/1
f 49/16/4 43/17/4 8/18/4 28/19/4
f 48/20/4 46/21/4 16/22/4 23/23/4
f 21/24/6 14/25/6 13/26/6 24/27/6
f 62/28/1 60/29/1 14/25/1 21/24/1
f 51/14/1 10/15/1 20/15/1 54/14/1
f 2/5/7 4/3/7 17/3/7 18/5/7
f 64/13/4 2/12/4 18/12/4 68/11/4
f 65/8/1 62/28/1 21/24/1 3/9/1
f 3/9/8 21/24/8 24/27/8 1/30/8
f 50/31/4 48/20/4 23/23/4 7/32/4
f 46/21/4 49/16/4 28/19/4 16/22/4
f 14/25/9 26/4/9 25/6/9 13/26/9
f 60/29/1 63/1/1 26/4/1 14/25/1
f 59/2/10 66/13/10 5/12/10 6/3/10
f 52/14/11 45/33/11 34/34/11 31/35/11
f 53/36/1 56/37/1 42/38/1 36/39/1
f 67/40/4 70/41/4 41/42/4 35/43/4
f 57/44/4 69/45/4 40/46/4 29/47/4
f 44/48/1 55/49/1 39/50/1 33/51/1
f 43/17/4 32/34/4 38/34/4 47/52/4
f 58/2/1 30/35/1 37/53/1 61/2/1
f 55/49/1 53/36/1 36/39/1 39/50/1
f 69/45/4 67/40/4 35/43/4 40/46/4
f 70/41/4 64/13/4 32/34/4 41/42/4
f 61/2/1 37/53/1 31/35/1 59/2/1
f 47/52/4 38/34/4 34/34/4 45/33/4
f 50/54/3 44/48/3 33/51/3 29/55/3
f 56/37/1 51/14/1 30/35/1 42/38/1
f 27/56/1 10/15/1 51/14/1 56/37/1
f 7/57/3 9/58/3 44/48/3 50/54/3
f 19/18/4 47/52/4 45/33/4 11/18/4
f 22/59/1 15/60/1 53/36/1 55/49/1
f 8/18/4 43/17/4 47/52/4 19/18/4
f 9/58/1 22/59/1 55/49/1 44/48/1
f 15/60/1 27/56/1 56/37/1 53/36/1
f 12/15/12 11/18/12 45/33/12 52/14/12
f 35/43/4 41/42/4 49/16/4 46/21/4
f 29/47/4 40/46/4 48/20/4 50/31/4
f 30/35/1 51/14/1 54/14/1 37/53/1
f 40/46/4 35/43/4 46/21/4 48/20/4
f 41/42/4 32/34/4 43/17/4 49/16/4
f 37/53/1 54/14/1 52/14/1 31/35/1
f 7/32/13 23/23/13 22/59/13 9/58/13
f 22/59/14 23/23/14 16/22/14 15/60/14
f 15/60/15 16/22/15 28/19/15 27/56/15
f 27/56/16 28/19/16 8/18/16 10/15/16
f 19/18/17 20/15/17 10/15/17 8/18/17
f 11/18/18 12/15/18 20/15/18 19/18/18
f 17/3/1 61/2/1 59/2/1 6/3/1
f 25/61/4 2/12/4 64/13/4 70/41/4
f 24/62/4 13/63/4 67/40/4 69/45/4
f 4/3/1 58/2/1 61/2/1 17/3/1
f 1/64/4 24/62/4 69/45/4 57/44/4
f 13/63/4 25/61/4 70/41/4 67/40/4
f 31/35/19 34/34/19 66/13/19 59/2/19
f 36/39/1 42/38/1 63/1/1 60/29/1
f 33/51/1 39/50/1 62/28/1 65/8/1
f 32/34/4 64/13/4 68/11/4 38/34/4
f 39/50/1 36/39/1 60/29/1 62/28/1
f 38/34/4 68/11/4 66/13/4 34/34/4
f 29/55/3 33/51/3 65/8/3 57/7/3
f 42/38/1 30/35/1 58/2/1 63/1/1
